<svg width="27" height="25" viewBox="0 0 27 25" fill="none" xmlns="http://www.w3.org/2000/svg">
<path d="M7.89923 14.2764L11.6726 10.503L3.41923 2.26302C2.77923 1.62302 1.67256 1.79636 1.27256 2.62302C0.325893 4.60969 0.672559 7.04969 2.31256 8.70302L7.89923 14.2764ZM16.9392 11.863C18.9792 12.8097 21.8459 12.143 23.9659 10.023C26.5126 7.47635 27.0059 3.82302 25.0459 1.86302C23.0992 -0.0836439 19.4459 0.396356 16.8859 2.94302C14.7659 5.06302 14.0992 7.92969 15.0459 9.96969L2.96589 22.0497C2.71659 22.299 2.57653 22.6371 2.57653 22.9897C2.57653 23.3423 2.71659 23.6804 2.96589 23.9297C3.2152 24.179 3.55332 24.319 3.90589 24.319C4.25846 24.319 4.59659 24.179 4.84589 23.9297L13.0992 15.703L21.3392 23.943C21.4627 24.0665 21.6092 24.1644 21.7705 24.2312C21.9318 24.298 22.1047 24.3324 22.2792 24.3324C22.4538 24.3324 22.6267 24.298 22.788 24.2312C22.9492 24.1644 23.0958 24.0665 23.2192 23.943C23.3427 23.8196 23.4406 23.673 23.5074 23.5117C23.5742 23.3505 23.6086 23.1776 23.6086 23.003C23.6086 22.8284 23.5742 22.6556 23.5074 22.4943C23.4406 22.333 23.3427 22.1865 23.2192 22.063L14.9792 13.823L16.9392 11.863Z" fill="#02E4C0"/>
</svg>
