<svg width="33" height="15" viewBox="0 0 33 15" fill="none" xmlns="http://www.w3.org/2000/svg">
<path d="M25.3 3.18503e-05C23.38 3.18503e-05 21.5667 0.780699 20.2733 2.13293L10.9 10.8318C10.0467 11.724 8.91333 12.2119 7.7 12.2119C5.20667 12.2119 3.16667 10.1069 3.16667 7.50002C3.16667 4.89314 5.20667 2.78813 7.7 2.78813C8.91333 2.78813 10.0467 3.27605 10.9533 4.224L12.46 5.61805L14.5 3.75002L12.7933 2.20263C12.1256 1.50188 11.3317 0.94643 10.4575 0.568372C9.58328 0.190315 8.64605 -0.00285339 7.7 3.18503e-05C3.72667 3.18503e-05 0.5 3.37363 0.5 7.50002C0.5 11.6264 3.72667 15 7.7 15C9.62 15 11.4333 14.2193 12.7267 12.8671L22.1 4.16824C22.9533 3.27605 24.0867 2.78813 25.3 2.78813C27.7933 2.78813 29.8333 4.89314 29.8333 7.50002C29.8333 10.1069 27.7933 12.2119 25.3 12.2119C24.1 12.2119 22.9533 11.724 22.0467 10.776L20.5 9.36804L18.5 11.2361L20.2067 12.7974C20.8762 13.4946 21.6707 14.0469 22.5447 14.4224C23.4187 14.798 24.3551 14.9896 25.3 14.9861C29.2733 14.9861 32.5 11.6264 32.5 7.50002C32.5 3.31787 29.2733 3.18503e-05 25.3 3.18503e-05Z" fill="#02E4C0"/>
</svg>
