<svg width="27" height="27" viewBox="0 0 27 27" fill="none" xmlns="http://www.w3.org/2000/svg">
<path d="M11.303 12.109C12.629 14.241 12.434 16.75 10.848 17.764C9.262 18.752 6.896 17.829 5.557 15.697C4.231 13.565 4.439 11.03 6.025 10.042C7.611 9.054 9.977 9.977 11.303 12.109ZM13.5 20.975C16.1 20.975 16.75 20 16.75 20C16.75 20 16.1 22.6 13.5 22.6C10.9 22.6 10.25 20.039 10.25 20C10.25 20 10.9 20.975 13.5 20.975ZM20.975 10.042C22.561 11.03 22.769 13.565 21.443 15.697C20.104 17.829 17.738 18.752 16.152 17.764C14.566 16.75 14.371 14.241 15.697 12.109C17.023 9.977 19.389 9.054 20.975 10.042ZM13.5 23.9C16.75 23.9 23.9 17.218 23.9 12.2C23.9 7.182 19.233 3.1 13.5 3.1C7.767 3.1 3.1 7.182 3.1 12.2C3.1 17.218 10.25 23.9 13.5 23.9ZM13.5 0.5C20.65 0.5 26.5 5.752 26.5 12.2C26.5 17.504 19.116 26.5 13.5 26.5C7.884 26.5 0.5 17.504 0.5 12.2C0.5 5.752 6.35 0.5 13.5 0.5Z" fill="#02E4C0"/>
</svg>
