<svg width="36" height="36" viewBox="0 0 36 36" fill="none" xmlns="http://www.w3.org/2000/svg">
<path d="M18 20.9635C21.217 20.9635 23.8333 18.3473 23.8333 15.1302C23.8333 11.9131 21.217 9.29688 18 9.29688C14.7829 9.29688 12.1666 11.9131 12.1666 15.1302C12.1666 18.3473 14.7829 20.9635 18 20.9635ZM18 12.2135C19.6085 12.2135 20.9166 13.5217 20.9166 15.1302C20.9166 16.7387 19.6085 18.0469 18 18.0469C16.3914 18.0469 15.0833 16.7387 15.0833 15.1302C15.0833 13.5217 16.3914 12.2135 18 12.2135Z" fill="white"/>
<path d="M17.1542 32.3588C17.401 32.5351 17.6968 32.6298 18 32.6298C18.3033 32.6298 18.5991 32.5351 18.8459 32.3588C19.2892 32.0453 29.709 24.5217 29.6667 15.13C29.6667 8.69734 24.4328 3.46338 18 3.46338C11.5673 3.46338 6.33338 8.69734 6.33338 15.1228C6.29109 24.5217 16.7109 32.0453 17.1542 32.3588ZM18 6.38005C22.8257 6.38005 26.75 10.3044 26.75 15.1373C26.7807 21.6094 20.3509 27.4209 18 29.3269C15.6507 27.4194 9.21942 21.6065 9.25005 15.13C9.25005 10.3044 13.1744 6.38005 18 6.38005Z" fill="white"/>
</svg>
