<svg width="41" height="41" viewBox="0 0 41 41" fill="none" xmlns="http://www.w3.org/2000/svg">
<path fill-rule="evenodd" clip-rule="evenodd" d="M20.5 8.48571C13.8647 8.48571 8.48571 13.8647 8.48571 20.5C8.48571 24.9388 10.8928 28.8153 14.4729 30.8954L19.346 18.7127C19.601 18.0754 20.3243 17.7654 20.9616 18.0203C21.5989 18.2752 21.9089 18.9986 21.654 19.6359L19.2156 25.7317C20.14 25.9589 21.1141 25.9384 22.0373 25.6636C23.266 25.2979 24.324 24.506 25.021 23.4301C25.7181 22.3543 26.0085 21.0651 25.8402 19.7942C25.6718 18.5234 25.0556 17.3543 24.1024 16.4971C23.1492 15.6399 21.9215 15.1508 20.64 15.1177C19.3585 15.0846 18.1072 15.5098 17.1111 16.3167C16.115 17.1236 15.4393 18.2594 15.2056 19.5198C14.9719 20.7803 15.1955 22.0828 15.8362 23.1932C16.1792 23.7877 15.9753 24.5478 15.3808 24.8908C14.7862 25.2338 14.0262 25.03 13.6831 24.4354C12.7468 22.8125 12.42 20.9089 12.7616 19.0667C13.1031 17.2245 14.0906 15.5645 15.5465 14.3852C17.0023 13.2058 18.8312 12.5845 20.7041 12.6328C22.5771 12.6811 24.3714 13.396 25.7646 14.6488C27.1577 15.9017 28.0582 17.6104 28.3043 19.4677C28.5504 21.3251 28.1259 23.2094 27.1072 24.7818C26.0884 26.3542 24.5421 27.5116 22.7463 28.0461C21.2847 28.4811 19.7357 28.4801 18.2863 28.0551L16.7423 31.915C17.9245 32.3039 19.1877 32.5143 20.5 32.5143C27.1353 32.5143 32.5143 27.1353 32.5143 20.5C32.5143 13.8647 27.1353 8.48571 20.5 8.48571ZM6 20.5C6 12.4919 12.4919 6 20.5 6C28.5081 6 35 12.4919 35 20.5C35 28.5081 28.5081 35 20.5 35C12.4919 35 6 28.5081 6 20.5Z" fill="white"/>
</svg>
