<svg width="41" height="41" viewBox="0 0 41 41" fill="none" xmlns="http://www.w3.org/2000/svg">
<path d="M16.1457 10.7943C17.1883 10.7943 18.1461 11.0779 19.0193 11.6451C19.4702 11.5334 20.0058 11.477 20.6262 11.4761C23.19 11.4761 25.3738 12.4112 27.1775 14.2814C28.9811 16.1517 29.883 18.4196 29.883 21.0853C29.883 21.7363 29.8126 22.4167 29.6719 23.1264C30.0385 23.9498 30.2219 24.7852 30.2219 25.6328C30.2219 27.1659 29.6932 28.4768 28.6358 29.5656C27.5802 30.6572 26.3187 31.2035 24.8511 31.2044C23.9618 31.2016 23.0885 30.9667 22.3164 30.5226C21.585 30.6363 21.0216 30.6931 20.6262 30.6931C18.0614 30.6931 15.8702 29.7575 14.0527 27.8863C11.3263 25.0796 11.3263 23.7481 11.3263 21.0853C11.3263 20.4613 11.3967 19.8232 11.5374 19.1713C11.0287 18.31 10.7658 17.3244 10.7777 16.3226C10.7777 14.7914 11.299 13.4879 12.3416 12.4121C13.3842 11.3336 14.6522 10.7943 16.1457 10.7943ZM20.4998 25.5057C19.9378 25.5057 19.4864 25.4205 19.1457 25.25C18.7808 25.0516 18.5276 24.8537 18.3859 24.6562C18.048 24.0313 17.8647 23.7053 17.836 23.6783C17.7375 23.3581 17.5641 23.0663 17.3304 22.8275C17.0852 22.6428 16.7893 22.5389 16.4832 22.5299C16.3038 22.5238 16.125 22.5546 15.9579 22.6204C15.7907 22.6863 15.6386 22.7857 15.511 22.9127C15.39 23.0272 15.2937 23.1655 15.2282 23.3191C15.1627 23.4728 15.1294 23.6383 15.1304 23.8054C15.1314 24.3438 15.3295 24.925 15.7249 25.549C16.0906 26.1162 16.598 26.5833 17.2471 26.9503C18.1471 27.4337 19.26 27.6754 20.5859 27.6754C21.6831 27.6754 22.6553 27.5054 23.5025 27.1654C24.3479 26.7687 24.9678 26.2727 25.3622 25.6775C25.7844 25.0246 25.9955 24.3158 25.9955 23.5512C25.9955 22.929 25.8835 22.3622 25.6594 21.8509C25.4335 21.4252 25.0807 21.0434 24.6011 20.7053C24.0946 20.3932 23.5564 20.1366 22.9956 19.9397C22.3257 19.7319 21.6489 19.5474 20.9665 19.3864C20.7176 19.3479 20.4706 19.298 20.2262 19.2369L19.6568 19.0888C19.4083 19.0129 19.1674 18.9137 18.9373 18.7927C18.7178 18.685 18.5287 18.5236 18.3873 18.3232C18.3162 18.2506 18.2607 18.164 18.2244 18.0688C18.188 17.9736 18.1716 17.8719 18.1762 17.77C18.1762 17.431 18.3734 17.1334 18.7679 16.8772C19.1345 16.5932 19.6697 16.4511 20.3734 16.4511C21.079 16.4511 21.6007 16.5783 21.9387 16.8325C22.3044 17.1464 22.5715 17.5013 22.74 17.8971C22.9669 18.266 23.1502 18.5207 23.29 18.6613C23.5215 18.8349 23.8042 18.9254 24.0928 18.9184C24.2752 18.9185 24.4557 18.8806 24.6228 18.807C24.7899 18.7334 24.94 18.6258 25.0636 18.4909C25.1881 18.3701 25.2863 18.2247 25.352 18.0639C25.4178 17.903 25.4496 17.7301 25.4456 17.5562C25.4456 17.2731 25.3465 16.9047 25.1483 16.4511C24.8947 16.0767 24.5966 15.7347 24.2609 15.4327C23.8664 15.1197 23.3447 14.8501 22.6956 14.6237C21.9949 14.4216 21.269 14.3214 20.5401 14.3262C19.5262 14.3252 18.6244 14.4812 17.8346 14.7942C17.0475 15.0745 16.4425 15.4988 16.0193 16.0669C15.5975 16.6298 15.3742 17.318 15.3846 18.0229C15.3846 18.7587 15.5818 19.3967 15.9763 19.9369C16.4559 20.5022 16.9911 20.8985 17.5818 21.1258C18.2586 21.4387 19.0762 21.694 20.0345 21.8914C20.204 21.9203 20.4081 21.9696 20.647 22.0395L21.2817 22.2113L21.7248 22.3161C22.1192 22.4586 22.4428 22.6575 22.6956 22.9127C22.9493 23.1092 23.0761 23.4068 23.0761 23.8054C23.0761 24.2879 22.8512 24.6851 22.4012 24.9971C21.8956 25.3362 21.2618 25.5057 20.4998 25.5057ZM16.1457 8.00013C13.911 8.00013 11.9055 8.85235 10.3486 10.466C8.81388 12.0503 8 14.0775 8 16.3226C8 17.485 8.21666 18.5845 8.64721 19.603C8.5821 20.0948 8.54962 20.5905 8.54999 21.0867C8.54999 24.4928 9.73469 27.4393 12.0666 29.8423C14.418 32.262 17.2999 33.4887 20.6276 33.4887C20.9804 33.4887 21.3873 33.4607 21.872 33.4048C22.8303 33.8002 23.8289 34 24.8525 34C27.058 34 29.0538 33.1422 30.626 31.5174C31.3887 30.7433 31.9911 29.8247 32.3985 28.8149C32.8059 27.8051 33.0102 26.724 32.9996 25.6342C32.9996 24.6884 32.8454 23.7495 32.5385 22.8344C32.6201 22.2555 32.6614 21.6715 32.6621 21.0867C32.6621 17.682 31.4871 14.7383 29.1719 12.3367C26.8316 9.91274 23.9567 8.6833 20.6276 8.6833C20.2561 8.68228 19.8848 8.7 19.5151 8.73639C18.4594 8.24493 17.309 7.99355 16.1457 8.00013Z" fill="white"/>
</svg>
