<svg width="41" height="41" viewBox="0 0 41 41" fill="none" xmlns="http://www.w3.org/2000/svg">
<path fill-rule="evenodd" clip-rule="evenodd" d="M31.0486 11.5971C32.2103 11.9256 33.1253 12.8937 33.4358 14.1231C34 16.3511 34 21 34 21C34 21 34 25.6487 33.4358 27.8769C33.1253 29.1063 32.2103 30.0744 31.0486 30.4031C28.9432 31 20.5 31 20.5 31C20.5 31 12.0568 31 9.95128 30.4031C8.78952 30.0744 7.87459 29.1063 7.56409 27.8769C7 25.6487 7 21 7 21C7 21 7 16.3511 7.56409 14.1231C7.87459 12.8937 8.78952 11.9256 9.95128 11.5971C12.0568 11 20.5 11 20.5 11C20.5 11 28.9432 11 31.0486 11.5971ZM17.9688 17.0869V25.7825L24.7188 21.4349L17.9688 17.0869Z" fill="white"/>
</svg>
